# xmcd
#
# Track frame offsets:
#	150
#	18002
#	31233
#	48336
#	64684
#	84258
#	97610
#	117809
#	131828
#	148102
#	164372
#	178977
#	194373
#	210681
#	226042
#	240985
#	257671
#	272074
#	288738
#	304931
#	317511
#
# Disc length: 4436 seconds
#
# Revision: 0
# Processed by: cddbd v1.5.2PL0 Copyright (c) Steve Scherf et al.
# Submitted via: EasyCDDAExtractor 12.1.0.1
#
DISCID=1c115215
DTITLE=Various Artist - Nu Country Traxx Volume 135 US
DYEAR=2010
DGENRE=country
TTITLE0=Darius Rucker - Come Back Song
TTITLE1=Toby Keith - Trailerhood
TTITLE2=Steel Magnolia - Just By Being You (Halo and Wings)
TTITLE3=George Strait - The Breath You Take
TTITLE4=Sara Evans - A Little Bit Stronger
TTITLE5=LeAnn Rimes - Swingin'
TTITLE6=Cody McCarver - I'm America
TTITLE7=Emerson Drive - That Kind Of Beautiful
TTITLE8=Darryl Worley - Keep The Change
TTITLE9=Julianne Hough - Is That So Wrong
TTITLE10=Eric Church - Smoke A Little Smoke
TTITLE11=Blake Wise - Cornfields
TTITLE12=Train - Hey, Soul Sister [Country Mix]
TTITLE13=Josh Gracin - Cover Girl
TTITLE14=DJ Miller - A Little Naughty Is Nice
TTITLE15=Randy Rogers Band - Too Late For Goodbye
TTITLE16=Stealing Angels - He Better Be Dead
TTITLE17=Charlie Daniels - (What The World Needs) A Few More Rednecks 2010
TTITLE18=Brantley Gilbert - Country Must Be Countrywide
TTITLE19=Charlie Allen - Grandpa's Recipe [Remix]
TTITLE20=The Warren Brothers - Dear Mr. God
EXTD=
EXTT0=
EXTT1=
EXTT2=
EXTT3=
EXTT4=
EXTT5=
EXTT6=
EXTT7=
EXTT8=
EXTT9=
EXTT10=
EXTT11=
EXTT12=
EXTT13=
EXTT14=
EXTT15=
EXTT16=
EXTT17=
EXTT18=
EXTT19=
EXTT20=
PLAYORDER=
